<svg width="1200" height="820" viewBox="0 0 1200 820" fill="none" xmlns="http://www.w3.org/2000/svg" role="img" aria-label="Jubilee Medical digital health dashboard">
  <rect width="1200" height="820" fill="#ECF7F2"/>
  <rect x="56" y="56" width="1088" height="708" rx="28" fill="#FFFFFF" stroke="#D7E6DF" stroke-width="2"/>
  <rect x="56" y="56" width="238" height="708" rx="28" fill="#0B504B"/>
  <rect x="88" y="92" width="54" height="54" rx="14" fill="#DFF4EC"/>
  <path d="M115 103c-8 0-14.5 6.5-14.5 14.5 0 10.8 14.5 22.5 14.5 22.5s14.5-11.7 14.5-22.5c0-8-6.5-14.5-14.5-14.5Z" fill="#0B504B"/>
  <path d="M111 111h8v8h8v8h-8v8h-8v-8h-8v-8h8v-8Z" fill="#F26F5B"/>
  <text x="158" y="118" fill="#FFFFFF" font-family="Inter, Segoe UI, Arial" font-size="24" font-weight="800">Jubilee</text>
  <text x="158" y="144" fill="#BDEDDD" font-family="Inter, Segoe UI, Arial" font-size="20" font-weight="800">Med</text>
  <rect x="88" y="205" width="158" height="42" rx="10" fill="#17633C"/>
  <text x="112" y="232" fill="#FFFFFF" font-family="Inter, Segoe UI, Arial" font-size="15" font-weight="800">Overview</text>
  <text x="112" y="302" fill="#BDEDDD" font-family="Inter, Segoe UI, Arial" font-size="15" font-weight="700">Appointments</text>
  <text x="112" y="356" fill="#BDEDDD" font-family="Inter, Segoe UI, Arial" font-size="15" font-weight="700">EHR</text>
  <text x="112" y="410" fill="#BDEDDD" font-family="Inter, Segoe UI, Arial" font-size="15" font-weight="700">Pharmacy</text>
  <text x="112" y="464" fill="#BDEDDD" font-family="Inter, Segoe UI, Arial" font-size="15" font-weight="700">Labs</text>
  <text x="112" y="518" fill="#BDEDDD" font-family="Inter, Segoe UI, Arial" font-size="15" font-weight="700">Payments</text>
  <text x="340" y="128" fill="#132421" font-family="Inter, Segoe UI, Arial" font-size="34" font-weight="850">Provider workspace</text>
  <text x="340" y="164" fill="#5C6F6A" font-family="Inter, Segoe UI, Arial" font-size="18" font-weight="600">Appointments, records, pharmacy, labs, and billing in one view</text>
  <rect x="340" y="212" width="188" height="126" rx="18" fill="#DFF4EC"/>
  <text x="366" y="254" fill="#0B504B" font-family="Inter, Segoe UI, Arial" font-size="17" font-weight="800">Today visits</text>
  <text x="366" y="305" fill="#132421" font-family="Inter, Segoe UI, Arial" font-size="44" font-weight="850">42</text>
  <rect x="560" y="212" width="188" height="126" rx="18" fill="#FFF0EC"/>
  <text x="586" y="254" fill="#A33D2F" font-family="Inter, Segoe UI, Arial" font-size="17" font-weight="800">Pending labs</text>
  <text x="586" y="305" fill="#132421" font-family="Inter, Segoe UI, Arial" font-size="44" font-weight="850">16</text>
  <rect x="780" y="212" width="188" height="126" rx="18" fill="#EFF6FF"/>
  <text x="806" y="254" fill="#1D4ED8" font-family="Inter, Segoe UI, Arial" font-size="17" font-weight="800">Paid invoices</text>
  <text x="806" y="305" fill="#132421" font-family="Inter, Segoe UI, Arial" font-size="44" font-weight="850">87%</text>
  <rect x="340" y="386" width="400" height="300" rx="22" fill="#FFFFFF" stroke="#D7E6DF" stroke-width="2"/>
  <text x="368" y="430" fill="#132421" font-family="Inter, Segoe UI, Arial" font-size="22" font-weight="850">Queue</text>
  <rect x="368" y="462" width="344" height="54" rx="12" fill="#F6FAF8"/>
  <circle cx="396" cy="489" r="15" fill="#F26F5B"/>
  <text x="424" y="484" fill="#132421" font-family="Inter, Segoe UI, Arial" font-size="15" font-weight="800">Amina Bello</text>
  <text x="424" y="505" fill="#5C6F6A" font-family="Inter, Segoe UI, Arial" font-size="13" font-weight="600">General consultation</text>
  <rect x="368" y="534" width="344" height="54" rx="12" fill="#F6FAF8"/>
  <circle cx="396" cy="561" r="15" fill="#0F766E"/>
  <text x="424" y="556" fill="#132421" font-family="Inter, Segoe UI, Arial" font-size="15" font-weight="800">Chidi Okeke</text>
  <text x="424" y="577" fill="#5C6F6A" font-family="Inter, Segoe UI, Arial" font-size="13" font-weight="600">Follow-up visit</text>
  <rect x="368" y="606" width="344" height="54" rx="12" fill="#F6FAF8"/>
  <circle cx="396" cy="633" r="15" fill="#F6BD43"/>
  <text x="424" y="628" fill="#132421" font-family="Inter, Segoe UI, Arial" font-size="15" font-weight="800">Bola Musa</text>
  <text x="424" y="649" fill="#5C6F6A" font-family="Inter, Segoe UI, Arial" font-size="13" font-weight="600">Lab result review</text>
  <rect x="774" y="386" width="314" height="300" rx="22" fill="#FFFFFF" stroke="#D7E6DF" stroke-width="2"/>
  <text x="802" y="430" fill="#132421" font-family="Inter, Segoe UI, Arial" font-size="22" font-weight="850">Patient record</text>
  <rect x="802" y="462" width="80" height="80" rx="20" fill="#DFF4EC"/>
  <circle cx="842" cy="494" r="17" fill="#0F766E"/>
  <path d="M814 536c8-17 48-17 56 0" stroke="#0F766E" stroke-width="8" stroke-linecap="round"/>
  <text x="902" y="488" fill="#132421" font-family="Inter, Segoe UI, Arial" font-size="20" font-weight="850">Mary A.</text>
  <text x="902" y="516" fill="#5C6F6A" font-family="Inter, Segoe UI, Arial" font-size="14" font-weight="650">Hypertension follow-up</text>
  <rect x="802" y="580" width="240" height="14" rx="7" fill="#DFF4EC"/>
  <rect x="802" y="612" width="182" height="14" rx="7" fill="#DFF4EC"/>
  <rect x="802" y="644" width="216" height="14" rx="7" fill="#DFF4EC"/>
</svg>
